:FULLY-SPECIFIED
:FORCE-ALL-JOINTS-BE-3DOF
:DEGREES
985
root 1.11131 15.1439 32.4921 5.35816 -4.6627 4.16758
lfemur 8.71841 1.74637 5.15992
ltibia 3.65764e-14 -0 0
lfoot -30.1894 -11.6472 0.000259901
ltoes -33.8571 0 0
rfemur -33.0339 -15.6201 -6.2949
rtibia 50.9972 -0 0
rfoot -22.7816 4.93415 0.000374213
rtoes -42.0931 0 0
lowerback -1.47313 -0.448212 0.618444
upperback -0.732698 -0.603229 -5.91205
thorax 0.00136621 -0.319046 -6.49123
lowerneck -6.59621 1.17877 5.87995
upperneck 0.909393 1.0033 3.32674
head 1.40657 0.597895 0.0818711
lclavicle 4.17448e-15 7.79236e-14 0
lhumerus -58.6482 -45.4691 115.069
lradius 55.093 -0 0
lwrist 25.5062 0 0
lhand 37.181 24.5099 0.00162538
lfingers 7.12502 -0 0
lthumb 60.0212 38.2753 0.00295432
rclavicle 4.17448e-15 7.79236e-14 0
rhumerus 3.72344 -24.7128 -0.102338
rradius 28.1282 -0 0
rwrist -11.5113 0 0
rhand -31.2304 -44.3201 -0.00245621
rfingers 7.12502 -0 0
rthumb -4.5056 -74.2523 -0.00235311
986
root 1.11446 15.1463 32.4864 5.32503 -4.6388 4.14924
lfemur 8.71658 1.71318 5.16612
ltibia 3.65764e-14 -0 0
lfoot -30.1846 -11.6279 0.000226071
ltoes -33.8768 0 0
rfemur -32.9575 -15.6342 -6.28581
rtibia 50.9054 -0 0
rfoot -22.7943 4.89679 0.000354571
rtoes -42.2078 0 0
lowerback -1.4631 -0.431882 0.616917
upperback -0.728031 -0.581278 -5.89601
thorax 0.00332919 -0.307784 -6.47288
lowerneck -6.62705 1.18158 5.87591
upperneck 0.962232 1.00205 3.34266
head 1.42894 0.59965 0.0877692
lclavicle 4.17448e-15 7.79236e-14 0
lhumerus -58.6136 -45.4861 115.092
lradius 55.0824 -0 0
lwrist 25.4716 0 0
lhand 37.1933 24.491 0.00139183
lfingers 7.12502 -0 0
lthumb 60.0315 38.2446 0.00253413
rclavicle 4.17448e-15 7.79236e-14 0
rhumerus 3.7374 -24.6635 -0.137498
rradius 28.0987 -0 0
rwrist -11.4421 0 0
rhand -31.2416 -44.2809 -0.00217387
rfingers 7.12502 -0 0
rthumb -4.51641 -74.2129 -0.00208281
987
root 1.11749 15.1488 32.4808 5.29269 -4.61414 4.13039
lfemur 8.71431 1.67963 5.17314
ltibia 3.65764e-14 -0 0
lfoot -30.179 -11.6088 0.000185557
ltoes -33.8961 0 0
rfemur -32.8812 -15.6492 -6.27592
rtibia 50.8145 -0 0
rfoot -22.8066 4.86041 0.0003213
rtoes -42.3213 0 0
lowerback -1.45311 -0.415817 0.615056
upperback -0.723576 -0.559689 -5.88064
thorax 0.00504091 -0.296715 -6.45505
lowerneck -6.6577 1.18411 5.87217
upperneck 1.01471 1.00041 3.35899
head 1.45116 0.601212 0.0937278
lclavicle 4.17448e-15 7.79236e-14 0
lhumerus -58.5805 -45.5035 115.115
lradius 55.0732 -0 0
lwrist 25.4348 0 0
lhand 37.2074 24.4708 0.00113015
lfingers 7.12502 -0 0
lthumb 60.0434 38.2107 0.00206039
rclavicle 4.17448e-15 7.79236e-14 0
rhumerus 3.75122 -24.6155 -0.169886
rradius 28.0696 -0 0
rwrist -11.3744 0 0
rhand -31.2532 -44.245 -0.00182965
rfingers 7.12502 -0 0
rthumb -4.52765 -74.1767 -0.00175311
988
root 1.12037 15.1512 32.4755 5.26134 -4.5884 4.11119
lfemur 8.71137 1.64548 5.18108
ltibia 3.65764e-14 -0 0
lfoot -30.1729 -11.5896 0.000141617
ltoes -33.9152 0 0
rfemur -32.8058 -15.6644 -6.26551
rtibia 50.7261 -0 0
rfoot -22.8179 4.82496 0.000276643
rtoes -42.4314 0 0
lowerback -1.44326 -0.400146 0.612781
upperback -0.719179 -0.538623 -5.86614
thorax 0.00669603 -0.285914 -6.43792
lowerneck -6.688 1.18611 5.86893
upperneck 1.06607 0.998085 3.37529
head 1.47296 0.602405 0.0995619
lclavicle 4.17448e-15 7.79236e-14 0
lhumerus -58.5497 -45.5218 115.137
lradius 55.0658 -0 0
lwrist 25.3975 0 0
lhand 37.222 24.4507 0.000860469
lfingers 7.12502 -0 0
lthumb 60.0557 38.1763 0.00156979
rclavicle 4.17448e-15 7.79236e-14 0
rhumerus 3.76334 -24.5688 -0.199165
rradius 28.0413 -0 0
rwrist -11.3091 0 0
rhand -31.2642 -44.2109 -0.00144986
rfingers 7.12502 -0 0
rthumb -4.53827 -74.1424 -0.00138924
989
root 1.12311 15.1534 32.4704 5.23114 -4.56125 4.09177
lfemur 8.70753 1.61048 5.19002
ltibia 3.65764e-14 -0 0
lfoot -30.1668 -11.57 9.77191e-05
ltoes -33.9341 0 0
rfemur -32.7322 -15.6793 -6.25488
rtibia 50.6418 -0 0
rfoot -22.8278 4.79037 0.000223424
rtoes -42.5361 0 0
lowerback -1.43365 -0.384997 0.610015
upperback -0.714684 -0.518243 -5.8527
thorax 0.00848911 -0.275456 -6.42165
lowerneck -6.71783 1.18733 5.86643
upperneck 1.11558 0.994798 3.39112
head 1.49408 0.603051 0.105087
lclavicle 4.17448e-15 7.79236e-14 0
lhumerus -58.5218 -45.5416 115.158
lradius 55.0608 -0 0
lwrist 25.3611 0 0
lhand 37.2357 24.4321 0.000601334
lfingers 7.12502 -0 0
lthumb 60.0673 38.1442 0.00109659
rclavicle 4.17448e-15 7.79236e-14 0
rhumerus 3.77223 -24.5236 -0.225003
rradius 28.014 -0 0
rwrist -11.2467 0 0
rhand -31.2735 -44.1773 -0.00106157
rfingers 7.12502 -0 0
rthumb -4.54721 -74.1086 -0.00101714
990
root 1.12567 15.1556 32.4655 5.2023 -4.53237 4.07229
lfemur 8.70254 1.57441 5.20005
ltibia 3.65764e-14 -0 0
lfoot -30.1611 -11.5499 5.75467e-05
ltoes -33.9528 0 0
rfemur -32.6612 -15.6932 -6.2443
rtibia 50.5633 -0 0
rfoot -22.8356 4.75658 0.000165013
rtoes -42.6333 0 0
lowerback -1.42437 -0.3705 0.606679
upperback -0.709937 -0.498709 -5.84052
thorax 0.0106146 -0.265419 -6.4064
lowerneck -6.74703 1.18754 5.86488
upperneck 1.16247 0.990261 3.40606
head 1.51426 0.602975 0.110116
lclavicle 4.17448e-15 7.79236e-14 0
lhumerus -58.4976 -45.5636 115.179
lradius 55.0587 -0 0
lwrist 25.3272 0 0
lhand 37.2473 24.4162 0.000369789
lfingers 7.12502 -0 0
lthumb 60.0771 38.117 0.000672757
rclavicle 4.17448e-15 7.79236e-14 0
rhumerus 3.77635 -24.4801 -0.247066
rradius 27.9882 -0 0
rwrist -11.1881 0 0
rhand -31.2799 -44.1428 -0.000692618
rfingers 7.12502 -0 0
rthumb -4.55342 -74.0739 -0.000663536
991
root 1.12805 15.1574 32.4609 5.17499 -4.50142 4.05291
lfemur 8.69619 1.53702 5.21127
ltibia 3.65764e-14 -0 0
lfoot -30.1561 -11.5288 2.50185e-05
ltoes -33.9714 0 0
rfemur -32.5937 -15.7055 -6.23405
rtibia 50.4922 -0 0
rfoot -22.8409 4.72352 0.000105301
rtoes -42.721 0 0
lowerback -1.41551 -0.356782 0.602695
upperback -0.704785 -0.480184 -5.82979
thorax 0.013267 -0.255876 -6.39235
lowerneck -6.77546 1.18648 5.86451
upperneck 1.20601 0.984188 3.41965
head 1.53321 0.601998 0.114466
lclavicle 4.17448e-15 7.79236e-14 0
lhumerus -58.4778 -45.5881 115.2
lradius 55.0601 -0 0
lwrist 25.2973 0 0
lhand 37.2553 24.4044 0.000181815
lfingers 7.12502 -0 0
lthumb 60.0838 38.0972 0.000328607
rclavicle 4.17448e-15 7.79236e-14 0
rhumerus 3.77415 -24.4385 -0.265028
rradius 27.9641 -0 0
rwrist -11.1339 0 0
rhand -31.2824 -44.1059 -0.000371924
rfingers 7.12502 -0 0
rthumb -4.55585 -74.037 -0.000356195
992
root 1.13024 15.159 32.4566 5.14942 -4.46807 4.03376
lfemur 8.68822 1.49807 5.22376
ltibia 3.65764e-14 -0 0
lfoot -30.1522 -11.5066 4.32754e-06
ltoes -33.99 0 0
rfemur -32.5304 -15.7156 -6.22441
rtibia 50.4303 -0 0
rfoot -22.8431 4.69113 4.86745e-05
rtoes -42.797 0 0
lowerback -1.40718 -0.343974 0.597983
upperback -0.699072 -0.462829 -5.82071
thorax 0.0166405 -0.246906 -6.37966
lowerneck -6.80298 1.18391 5.86554
upperneck 1.24543 0.976297 3.43148
head 1.55069 0.599945 0.117949
lclavicle 4.17448e-15 7.79236e-14 0
lhumerus -58.463 -45.6158 115.22
lradius 55.0656 -0 0
lwrist 25.2728 0 0
lhand 37.2584 24.3981 5.30781e-05
lfingers 7.12502 -0 0
lthumb 60.0864 38.0877 9.39864e-05
rclavicle 4.17448e-15 7.79236e-14 0
rhumerus 3.76409 -24.3989 -0.278561
rradius 27.9421 -0 0
rwrist -11.0848 0 0
rhand -31.28 -44.0654 -0.000130044
rfingers 7.12502 -0 0
rthumb -4.55345 -73.9965 -0.000124453
993
root 1.13221 15.1602 32.4526 5.12575 -4.432 364.015
lfemur 8.67841 1.45732 5.23763
ltibia 3.65764e-14 0 0
lfoot -30.1499 -11.4829 0
ltoes -34.0086 0 0
rfemur -32.4721 -15.7228 -6.21565
rtibia 50.3791 0 0
rfoot -22.8418 4.65935 0
rtoes -42.8594 0 0
lowerback -1.39947 -0.332204 0.592466
upperback -0.692645 -0.446805 -5.81346
thorax 0.0209294 -0.238582 -6.3685
lowerneck -6.82944 1.17959 5.8682
upperneck 1.28 0.966304 3.4411
head 1.56642 0.59664 0.120382
lclavicle 9.34288e-15 3.18055e-14 0
lhumerus -58.4541 -45.6472 115.24
lradius 55.0756 0 0
lwrist 25.2554 0 0
lhand 37.2552 24.3987 0
lfingers 7.12502 0 0
lthumb 60.0836 38.0909 0
rclavicle 9.34288e-15 3.18055e-14 0
rhumerus 3.74465 -24.3614 -0.287339
rradius 27.9225 0 0
rwrist -11.0416 0 0
rhand -31.2714 -44.0197 0
rfingers 7.12502 0 0
rthumb -4.54518 -793.951 0
